<?xml version="1.0" encoding="UTF-8"?>
<svg xmlns="http://www.w3.org/2000/svg" xmlns:xlink="http://www.w3.org/1999/xlink" width="25px" height="25px" viewBox="0 0 25 25" version="1.1">
<defs>
<radialGradient id="radial0" gradientUnits="userSpaceOnUse" cx="199.7884" cy="628.4379" fx="199.7884" fy="628.4379" r="52.3515" gradientTransform="matrix(-0.293666,0.082821,-0.0596695,-0.211572,120.362358,128.131235)">
<stop offset="0" style="stop-color:rgb(100%,0%,37.254902%);stop-opacity:1;"/>
<stop offset="1" style="stop-color:rgb(98.823529%,0.392157%,84.705882%);stop-opacity:1;"/>
</radialGradient>
<radialGradient id="radial1" gradientUnits="userSpaceOnUse" cx="158.429" cy="578.088" fx="158.429" fy="578.088" r="52.3515" gradientTransform="matrix(0,-0.381182,0.404427,0,-227.153679,87.315856)">
<stop offset="0" style="stop-color:rgb(100%,80%,0%);stop-opacity:1;"/>
<stop offset="0.1242" style="stop-color:rgb(100%,80%,0%);stop-opacity:1;"/>
<stop offset="0.5672" style="stop-color:rgb(99.607843%,29.019608%,1.960784%);stop-opacity:1;"/>
<stop offset="0.6942" style="stop-color:rgb(100%,5.882353%,24.705882%);stop-opacity:1;"/>
<stop offset="1" style="stop-color:rgb(99.607843%,2.352941%,34.117647%);stop-opacity:0;"/>
</radialGradient>
<radialGradient id="radial2" gradientUnits="userSpaceOnUse" cx="172.6149" cy="600.6924" fx="172.6149" fy="600.6924" r="65" gradientTransform="matrix(0.063724,-0.109798,0.142945,0.0829615,-83.733667,-6.234171)">
<stop offset="0" style="stop-color:rgb(100%,80%,0%);stop-opacity:1;"/>
<stop offset="1" style="stop-color:rgb(100%,80%,0%);stop-opacity:0;"/>
</radialGradient>
<radialGradient id="radial3" gradientUnits="userSpaceOnUse" cx="144.012" cy="51.3367" fx="144.012" fy="51.3367" r="67.081" gradientTransform="matrix(-0.226667,0.063826,-0.0217399,-0.077227,37.150889,-4.209109)">
<stop offset="0" style="stop-color:rgb(47.058824%,4.705882%,100%);stop-opacity:1;"/>
<stop offset="1" style="stop-color:rgb(50.980392%,4.313725%,100%);stop-opacity:0;"/>
</radialGradient>
</defs>
<g id="surface1">
<path style=" stroke:none;fill-rule:nonzero;fill:url(#radial0);" d="M 12.503906 0 C 7.285156 0 5.757812 0.0078125 5.460938 0.03125 C 4.390625 0.117188 3.726562 0.289062 3 0.648438 C 2.4375 0.929688 2 1.25 1.5625 1.703125 C 0.769531 2.523438 0.289062 3.539062 0.117188 4.742188 C 0.03125 5.328125 0.0078125 5.445312 0 8.429688 C -0.00390625 9.429688 0 10.738281 0 12.492188 C 0 17.710938 0.0078125 19.234375 0.03125 19.53125 C 0.117188 20.574219 0.28125 21.230469 0.625 21.945312 C 1.289062 23.320312 2.554688 24.351562 4.039062 24.734375 C 4.554688 24.867188 5.125 24.941406 5.855469 24.976562 C 6.164062 24.992188 9.320312 25 12.476562 25 C 15.632812 25 18.789062 24.996094 19.09375 24.980469 C 19.9375 24.941406 20.429688 24.875 20.976562 24.734375 C 22.46875 24.347656 23.710938 23.332031 24.386719 21.9375 C 24.726562 21.242188 24.898438 20.558594 24.976562 19.570312 C 24.992188 19.355469 25 15.921875 25 12.492188 C 25 9.0625 24.992188 5.632812 24.976562 5.417969 C 24.898438 4.414062 24.726562 3.738281 24.375 3.023438 C 24.085938 2.441406 23.765625 2.007812 23.304688 1.558594 C 22.476562 0.769531 21.46875 0.289062 20.257812 0.117188 C 19.679688 0.03125 19.5625 0.0078125 16.570312 0 Z M 12.503906 0 "/>
<path style=" stroke:none;fill-rule:nonzero;fill:url(#radial1);" d="M 12.503906 0 C 7.285156 0 5.757812 0.0078125 5.460938 0.03125 C 4.390625 0.117188 3.726562 0.289062 3 0.648438 C 2.4375 0.929688 2 1.25 1.5625 1.703125 C 0.769531 2.523438 0.289062 3.539062 0.117188 4.742188 C 0.03125 5.328125 0.0078125 5.445312 0 8.429688 C -0.00390625 9.429688 0 10.738281 0 12.492188 C 0 17.710938 0.0078125 19.234375 0.03125 19.53125 C 0.117188 20.574219 0.28125 21.230469 0.625 21.945312 C 1.289062 23.320312 2.554688 24.351562 4.039062 24.734375 C 4.554688 24.867188 5.125 24.941406 5.855469 24.976562 C 6.164062 24.992188 9.320312 25 12.476562 25 C 15.632812 25 18.789062 24.996094 19.09375 24.980469 C 19.9375 24.941406 20.429688 24.875 20.976562 24.734375 C 22.46875 24.347656 23.710938 23.332031 24.386719 21.9375 C 24.726562 21.242188 24.898438 20.558594 24.976562 19.570312 C 24.992188 19.355469 25 15.921875 25 12.492188 C 25 9.0625 24.992188 5.632812 24.976562 5.417969 C 24.898438 4.414062 24.726562 3.738281 24.375 3.023438 C 24.085938 2.441406 23.765625 2.007812 23.304688 1.558594 C 22.476562 0.769531 21.46875 0.289062 20.257812 0.117188 C 19.679688 0.03125 19.5625 0.0078125 16.570312 0 Z M 12.503906 0 "/>
<path style=" stroke:none;fill-rule:nonzero;fill:url(#radial2);" d="M 12.503906 0 C 7.285156 0 5.757812 0.0078125 5.460938 0.03125 C 4.390625 0.117188 3.726562 0.289062 3 0.648438 C 2.4375 0.929688 2 1.25 1.5625 1.703125 C 0.769531 2.523438 0.289062 3.539062 0.117188 4.742188 C 0.03125 5.328125 0.0078125 5.445312 0 8.429688 C -0.00390625 9.429688 0 10.738281 0 12.492188 C 0 17.710938 0.0078125 19.234375 0.03125 19.53125 C 0.117188 20.574219 0.28125 21.230469 0.625 21.945312 C 1.289062 23.320312 2.554688 24.351562 4.039062 24.734375 C 4.554688 24.867188 5.125 24.941406 5.855469 24.976562 C 6.164062 24.992188 9.320312 25 12.476562 25 C 15.632812 25 18.789062 24.996094 19.09375 24.980469 C 19.9375 24.941406 20.429688 24.875 20.976562 24.734375 C 22.46875 24.347656 23.710938 23.332031 24.386719 21.9375 C 24.726562 21.242188 24.898438 20.558594 24.976562 19.570312 C 24.992188 19.355469 25 15.921875 25 12.492188 C 25 9.0625 24.992188 5.632812 24.976562 5.417969 C 24.898438 4.414062 24.726562 3.738281 24.375 3.023438 C 24.085938 2.441406 23.765625 2.007812 23.304688 1.558594 C 22.476562 0.769531 21.46875 0.289062 20.257812 0.117188 C 19.679688 0.03125 19.5625 0.0078125 16.570312 0 Z M 12.503906 0 "/>
<path style=" stroke:none;fill-rule:nonzero;fill:url(#radial3);" d="M 12.503906 0 C 7.285156 0 5.757812 0.0078125 5.460938 0.03125 C 4.390625 0.117188 3.726562 0.289062 3 0.648438 C 2.4375 0.929688 2 1.25 1.5625 1.703125 C 0.769531 2.523438 0.289062 3.539062 0.117188 4.742188 C 0.03125 5.328125 0.0078125 5.445312 0 8.429688 C -0.00390625 9.429688 0 10.738281 0 12.492188 C 0 17.710938 0.0078125 19.234375 0.03125 19.53125 C 0.117188 20.574219 0.28125 21.230469 0.625 21.945312 C 1.289062 23.320312 2.554688 24.351562 4.039062 24.734375 C 4.554688 24.867188 5.125 24.941406 5.855469 24.976562 C 6.164062 24.992188 9.320312 25 12.476562 25 C 15.632812 25 18.789062 24.996094 19.09375 24.980469 C 19.9375 24.941406 20.429688 24.875 20.976562 24.734375 C 22.46875 24.347656 23.710938 23.332031 24.386719 21.9375 C 24.726562 21.242188 24.898438 20.558594 24.976562 19.570312 C 24.992188 19.355469 25 15.921875 25 12.492188 C 25 9.0625 24.992188 5.632812 24.976562 5.417969 C 24.898438 4.414062 24.726562 3.738281 24.375 3.023438 C 24.085938 2.441406 23.765625 2.007812 23.304688 1.558594 C 22.476562 0.769531 21.46875 0.289062 20.257812 0.117188 C 19.679688 0.03125 19.5625 0.0078125 16.570312 0 Z M 12.503906 0 "/>
<path style=" stroke:none;fill-rule:nonzero;fill:rgb(100%,100%,100%);fill-opacity:1;" d="M 12.507812 3.210938 C 9.980469 3.210938 9.664062 3.21875 8.671875 3.265625 C 7.683594 3.3125 7.007812 3.46875 6.414062 3.695312 C 5.804688 3.9375 5.289062 4.25 4.769531 4.769531 C 4.25 5.285156 3.9375 5.804688 3.695312 6.414062 C 3.46875 7.003906 3.3125 7.679688 3.265625 8.667969 C 3.21875 9.65625 3.210938 9.976562 3.210938 12.5 C 3.210938 15.023438 3.21875 15.335938 3.265625 16.328125 C 3.3125 17.316406 3.46875 17.992188 3.695312 18.582031 C 3.9375 19.195312 4.25 19.710938 4.769531 20.226562 C 5.285156 20.742188 5.804688 21.0625 6.414062 21.296875 C 7.007812 21.53125 7.679688 21.6875 8.671875 21.730469 C 9.664062 21.773438 9.980469 21.789062 12.503906 21.789062 C 15.03125 21.789062 15.34375 21.773438 16.335938 21.730469 C 17.328125 21.6875 18 21.53125 18.59375 21.296875 C 19.203125 21.0625 19.722656 20.742188 20.238281 20.226562 C 20.757812 19.710938 21.070312 19.195312 21.3125 18.582031 C 21.539062 17.992188 21.695312 17.316406 21.742188 16.328125 C 21.789062 15.335938 21.796875 15.023438 21.796875 12.5 C 21.796875 9.976562 21.789062 9.660156 21.742188 8.667969 C 21.695312 7.679688 21.539062 7.003906 21.3125 6.414062 C 21.070312 5.804688 20.757812 5.285156 20.238281 4.769531 C 19.71875 4.25 19.203125 3.9375 18.59375 3.695312 C 18 3.46875 17.324219 3.3125 16.335938 3.265625 C 15.34375 3.21875 15.027344 3.210938 12.5 3.210938 Z M 11.671875 4.882812 C 11.917969 4.882812 12.195312 4.882812 12.507812 4.882812 C 14.984375 4.882812 15.28125 4.890625 16.261719 4.9375 C 17.167969 4.976562 17.660156 5.132812 17.984375 5.257812 C 18.421875 5.425781 18.730469 5.625 19.054688 5.953125 C 19.382812 6.277344 19.582031 6.585938 19.75 7.019531 C 19.875 7.347656 20.03125 7.835938 20.070312 8.742188 C 20.117188 9.722656 20.125 10.015625 20.125 12.496094 C 20.125 14.976562 20.117188 15.269531 20.070312 16.25 C 20.03125 17.15625 19.875 17.644531 19.75 17.972656 C 19.582031 18.40625 19.382812 18.714844 19.054688 19.039062 C 18.730469 19.367188 18.421875 19.566406 17.984375 19.734375 C 17.660156 19.859375 17.167969 20.015625 16.261719 20.054688 C 15.28125 20.101562 14.984375 20.109375 12.507812 20.109375 C 10.023438 20.109375 9.726562 20.101562 8.75 20.054688 C 7.84375 20.011719 7.351562 19.859375 7.023438 19.734375 C 6.589844 19.566406 6.28125 19.367188 5.953125 19.039062 C 5.628906 18.714844 5.429688 18.40625 5.257812 17.96875 C 5.132812 17.644531 4.980469 17.152344 4.9375 16.25 C 4.894531 15.265625 4.882812 14.976562 4.882812 12.492188 C 4.882812 10.015625 4.894531 9.71875 4.9375 8.742188 C 4.980469 7.835938 5.132812 7.34375 5.257812 7.015625 C 5.429688 6.585938 5.628906 6.273438 5.953125 5.949219 C 6.28125 5.625 6.589844 5.421875 7.023438 5.253906 C 7.351562 5.125 7.84375 4.976562 8.75 4.933594 C 9.609375 4.894531 9.9375 4.882812 11.671875 4.882812 Z M 17.46875 6.425781 C 16.851562 6.425781 16.351562 6.921875 16.351562 7.539062 C 16.351562 8.15625 16.851562 8.65625 17.46875 8.65625 C 18.082031 8.65625 18.582031 8.15625 18.582031 7.539062 C 18.582031 6.925781 18.082031 6.425781 17.46875 6.425781 Z M 12.507812 7.726562 C 9.867188 7.726562 7.734375 9.863281 7.734375 12.5 C 7.734375 15.132812 9.867188 17.265625 12.507812 17.265625 C 15.140625 17.265625 17.277344 15.132812 17.277344 12.5 C 17.277344 9.863281 15.140625 7.726562 12.503906 7.726562 Z M 12.507812 9.402344 C 14.21875 9.402344 15.601562 10.789062 15.601562 12.5 C 15.601562 14.210938 14.21875 15.59375 12.507812 15.59375 C 10.792969 15.59375 9.40625 14.210938 9.40625 12.5 C 9.40625 10.789062 10.792969 9.402344 12.507812 9.402344 Z M 12.507812 9.402344 "/>
</g>
</svg>
