<?xml version="1.0" encoding="UTF-8"?>
<svg xmlns="http://www.w3.org/2000/svg" xmlns:xlink="http://www.w3.org/1999/xlink" width="50px" height="50px" viewBox="0 0 50 50" version="1.1">
<defs>
<radialGradient id="radial0" gradientUnits="userSpaceOnUse" cx="199.7884" cy="628.4379" fx="199.7884" fy="628.4379" r="52.3515" gradientTransform="matrix(-0.587333,0.165642,-0.119339,-0.423145,240.724717,256.26247)">
<stop offset="0" style="stop-color:rgb(100%,0%,37.254902%);stop-opacity:1;"/>
<stop offset="1" style="stop-color:rgb(98.823529%,0.392157%,84.705882%);stop-opacity:1;"/>
</radialGradient>
<radialGradient id="radial1" gradientUnits="userSpaceOnUse" cx="158.429" cy="578.088" fx="158.429" fy="578.088" r="52.3515" gradientTransform="matrix(0,-0.762365,0.808853,0,-454.307358,174.631713)">
<stop offset="0" style="stop-color:rgb(100%,80%,0%);stop-opacity:1;"/>
<stop offset="0.1242" style="stop-color:rgb(100%,80%,0%);stop-opacity:1;"/>
<stop offset="0.5672" style="stop-color:rgb(99.607843%,29.019608%,1.960784%);stop-opacity:1;"/>
<stop offset="0.6942" style="stop-color:rgb(100%,5.882353%,24.705882%);stop-opacity:1;"/>
<stop offset="1" style="stop-color:rgb(99.607843%,2.352941%,34.117647%);stop-opacity:0;"/>
</radialGradient>
<radialGradient id="radial2" gradientUnits="userSpaceOnUse" cx="172.6149" cy="600.6924" fx="172.6149" fy="600.6924" r="65" gradientTransform="matrix(0.127448,-0.219596,0.285889,0.165923,-167.467334,-12.468342)">
<stop offset="0" style="stop-color:rgb(100%,80%,0%);stop-opacity:1;"/>
<stop offset="1" style="stop-color:rgb(100%,80%,0%);stop-opacity:0;"/>
</radialGradient>
<radialGradient id="radial3" gradientUnits="userSpaceOnUse" cx="144.012" cy="51.3367" fx="144.012" fy="51.3367" r="67.081" gradientTransform="matrix(-0.453335,0.127652,-0.0434797,-0.154454,74.301779,-8.418218)">
<stop offset="0" style="stop-color:rgb(47.058824%,4.705882%,100%);stop-opacity:1;"/>
<stop offset="1" style="stop-color:rgb(50.980392%,4.313725%,100%);stop-opacity:0;"/>
</radialGradient>
</defs>
<g id="surface1">
<path style=" stroke:none;fill-rule:nonzero;fill:url(#radial0);" d="M 25.007812 0 C 14.570312 0 11.519531 0.0117188 10.925781 0.0585938 C 8.78125 0.238281 7.449219 0.574219 6 1.296875 C 4.878906 1.855469 3.996094 2.5 3.125 3.402344 C 1.539062 5.050781 0.578125 7.074219 0.230469 9.484375 C 0.0625 10.652344 0.0117188 10.890625 0 16.863281 C -0.00390625 18.855469 0 21.476562 0 24.988281 C 0 35.421875 0.0117188 38.472656 0.0625 39.066406 C 0.234375 41.148438 0.5625 42.460938 1.253906 43.894531 C 2.578125 46.640625 5.105469 48.703125 8.082031 49.472656 C 9.113281 49.738281 10.25 49.882812 11.710938 49.953125 C 12.332031 49.980469 18.640625 50 24.953125 50 C 31.269531 50 37.582031 49.992188 38.1875 49.960938 C 39.878906 49.882812 40.859375 49.75 41.949219 49.46875 C 44.941406 48.695312 47.421875 46.664062 48.773438 43.878906 C 49.453125 42.480469 49.796875 41.117188 49.953125 39.140625 C 49.984375 38.710938 50 31.84375 50 24.984375 C 50 18.125 49.984375 11.265625 49.949219 10.835938 C 49.792969 8.828125 49.449219 7.476562 48.75 6.050781 C 48.171875 4.882812 47.535156 4.011719 46.609375 3.117188 C 44.953125 1.539062 42.933594 0.578125 40.519531 0.230469 C 39.355469 0.0585938 39.121094 0.0117188 33.144531 0 Z M 25.007812 0 "/>
<path style=" stroke:none;fill-rule:nonzero;fill:url(#radial1);" d="M 25.007812 0 C 14.570312 0 11.519531 0.0117188 10.925781 0.0585938 C 8.78125 0.238281 7.449219 0.574219 6 1.296875 C 4.878906 1.855469 3.996094 2.5 3.125 3.402344 C 1.539062 5.050781 0.578125 7.074219 0.230469 9.484375 C 0.0625 10.652344 0.0117188 10.890625 0 16.863281 C -0.00390625 18.855469 0 21.476562 0 24.988281 C 0 35.421875 0.0117188 38.472656 0.0625 39.066406 C 0.234375 41.148438 0.5625 42.460938 1.253906 43.894531 C 2.578125 46.640625 5.105469 48.703125 8.082031 49.472656 C 9.113281 49.738281 10.25 49.882812 11.710938 49.953125 C 12.332031 49.980469 18.640625 50 24.953125 50 C 31.269531 50 37.582031 49.992188 38.1875 49.960938 C 39.878906 49.882812 40.859375 49.75 41.949219 49.46875 C 44.941406 48.695312 47.421875 46.664062 48.773438 43.878906 C 49.453125 42.480469 49.796875 41.117188 49.953125 39.140625 C 49.984375 38.710938 50 31.84375 50 24.984375 C 50 18.125 49.984375 11.265625 49.949219 10.835938 C 49.792969 8.828125 49.449219 7.476562 48.75 6.050781 C 48.171875 4.882812 47.535156 4.011719 46.609375 3.117188 C 44.953125 1.539062 42.933594 0.578125 40.519531 0.230469 C 39.355469 0.0585938 39.121094 0.0117188 33.144531 0 Z M 25.007812 0 "/>
<path style=" stroke:none;fill-rule:nonzero;fill:url(#radial2);" d="M 25.007812 0 C 14.570312 0 11.519531 0.0117188 10.925781 0.0585938 C 8.78125 0.238281 7.449219 0.574219 6 1.296875 C 4.878906 1.855469 3.996094 2.5 3.125 3.402344 C 1.539062 5.050781 0.578125 7.074219 0.230469 9.484375 C 0.0625 10.652344 0.0117188 10.890625 0 16.863281 C -0.00390625 18.855469 0 21.476562 0 24.988281 C 0 35.421875 0.0117188 38.472656 0.0625 39.066406 C 0.234375 41.148438 0.5625 42.460938 1.253906 43.894531 C 2.578125 46.640625 5.105469 48.703125 8.082031 49.472656 C 9.113281 49.738281 10.25 49.882812 11.710938 49.953125 C 12.332031 49.980469 18.640625 50 24.953125 50 C 31.269531 50 37.582031 49.992188 38.1875 49.960938 C 39.878906 49.882812 40.859375 49.75 41.949219 49.46875 C 44.941406 48.695312 47.421875 46.664062 48.773438 43.878906 C 49.453125 42.480469 49.796875 41.117188 49.953125 39.140625 C 49.984375 38.710938 50 31.84375 50 24.984375 C 50 18.125 49.984375 11.265625 49.949219 10.835938 C 49.792969 8.828125 49.449219 7.476562 48.75 6.050781 C 48.171875 4.882812 47.535156 4.011719 46.609375 3.117188 C 44.953125 1.539062 42.933594 0.578125 40.519531 0.230469 C 39.355469 0.0585938 39.121094 0.0117188 33.144531 0 Z M 25.007812 0 "/>
<path style=" stroke:none;fill-rule:nonzero;fill:url(#radial3);" d="M 25.007812 0 C 14.570312 0 11.519531 0.0117188 10.925781 0.0585938 C 8.78125 0.238281 7.449219 0.574219 6 1.296875 C 4.878906 1.855469 3.996094 2.5 3.125 3.402344 C 1.539062 5.050781 0.578125 7.074219 0.230469 9.484375 C 0.0625 10.652344 0.0117188 10.890625 0 16.863281 C -0.00390625 18.855469 0 21.476562 0 24.988281 C 0 35.421875 0.0117188 38.472656 0.0625 39.066406 C 0.234375 41.148438 0.5625 42.460938 1.253906 43.894531 C 2.578125 46.640625 5.105469 48.703125 8.082031 49.472656 C 9.113281 49.738281 10.25 49.882812 11.710938 49.953125 C 12.332031 49.980469 18.640625 50 24.953125 50 C 31.269531 50 37.582031 49.992188 38.1875 49.960938 C 39.878906 49.882812 40.859375 49.75 41.949219 49.46875 C 44.941406 48.695312 47.421875 46.664062 48.773438 43.878906 C 49.453125 42.480469 49.796875 41.117188 49.953125 39.140625 C 49.984375 38.710938 50 31.84375 50 24.984375 C 50 18.125 49.984375 11.265625 49.949219 10.835938 C 49.792969 8.828125 49.449219 7.476562 48.75 6.050781 C 48.171875 4.882812 47.535156 4.011719 46.609375 3.117188 C 44.953125 1.539062 42.933594 0.578125 40.519531 0.230469 C 39.355469 0.0585938 39.121094 0.0117188 33.144531 0 Z M 25.007812 0 "/>
<path style=" stroke:none;fill-rule:nonzero;fill:rgb(100%,100%,100%);fill-opacity:1;" d="M 25.011719 6.421875 C 19.960938 6.421875 19.328125 6.441406 17.34375 6.53125 C 15.367188 6.621094 14.015625 6.9375 12.832031 7.394531 C 11.609375 7.871094 10.574219 8.503906 9.539062 9.539062 C 8.503906 10.570312 7.871094 11.605469 7.394531 12.828125 C 6.933594 14.007812 6.621094 15.359375 6.53125 17.335938 C 6.441406 19.316406 6.417969 19.953125 6.417969 24.996094 C 6.417969 30.042969 6.441406 30.671875 6.53125 32.65625 C 6.621094 34.632812 6.933594 35.980469 7.394531 37.164062 C 7.871094 38.386719 8.503906 39.421875 9.539062 40.453125 C 10.570312 41.488281 11.609375 42.125 12.832031 42.597656 C 14.011719 43.058594 15.363281 43.371094 17.34375 43.460938 C 19.324219 43.550781 19.960938 43.574219 25.007812 43.574219 C 30.058594 43.574219 30.6875 43.550781 32.671875 43.460938 C 34.652344 43.371094 36.003906 43.058594 37.1875 42.597656 C 38.410156 42.125 39.445312 41.488281 40.476562 40.453125 C 41.511719 39.421875 42.144531 38.386719 42.621094 37.164062 C 43.078125 35.980469 43.394531 34.632812 43.484375 32.65625 C 43.574219 30.671875 43.597656 30.042969 43.597656 24.996094 C 43.597656 19.953125 43.574219 19.320312 43.484375 17.335938 C 43.394531 15.359375 43.078125 14.007812 42.621094 12.828125 C 42.144531 11.605469 41.511719 10.570312 40.476562 9.539062 C 39.441406 8.503906 38.410156 7.871094 37.183594 7.394531 C 36 6.9375 34.648438 6.621094 32.667969 6.53125 C 30.6875 6.441406 30.054688 6.421875 25.003906 6.421875 Z M 23.34375 9.769531 C 23.835938 9.765625 24.390625 9.769531 25.011719 9.769531 C 29.972656 9.769531 30.5625 9.785156 32.523438 9.875 C 34.335938 9.957031 35.320312 10.261719 35.972656 10.515625 C 36.839844 10.851562 37.460938 11.253906 38.109375 11.902344 C 38.761719 12.554688 39.164062 13.171875 39.5 14.039062 C 39.753906 14.695312 40.058594 15.675781 40.140625 17.488281 C 40.230469 19.445312 40.25 20.035156 40.25 24.992188 C 40.25 29.949219 40.230469 30.539062 40.140625 32.496094 C 40.058594 34.308594 39.753906 35.289062 39.5 35.945312 C 39.164062 36.8125 38.761719 37.429688 38.109375 38.078125 C 37.460938 38.730469 36.839844 39.132812 35.972656 39.46875 C 35.320312 39.722656 34.335938 40.027344 32.523438 40.109375 C 30.5625 40.199219 29.972656 40.214844 25.011719 40.214844 C 20.046875 40.214844 19.457031 40.199219 17.5 40.109375 C 15.683594 40.023438 14.703125 39.722656 14.046875 39.46875 C 13.179688 39.132812 12.558594 38.730469 11.90625 38.078125 C 11.257812 37.429688 10.855469 36.8125 10.515625 35.941406 C 10.261719 35.289062 9.960938 34.304688 9.875 32.496094 C 9.789062 30.535156 9.769531 29.949219 9.769531 24.988281 C 9.769531 20.027344 9.789062 19.441406 9.875 17.484375 C 9.960938 15.671875 10.261719 14.6875 10.515625 14.035156 C 10.855469 13.167969 11.257812 12.546875 11.90625 11.898438 C 12.558594 11.25 13.179688 10.84375 14.046875 10.507812 C 14.703125 10.253906 15.683594 9.949219 17.5 9.867188 C 19.214844 9.789062 19.878906 9.765625 23.34375 9.761719 Z M 34.933594 12.851562 C 33.703125 12.851562 32.703125 13.847656 32.703125 15.082031 C 32.703125 16.3125 33.703125 17.308594 34.933594 17.308594 C 36.164062 17.308594 37.164062 16.3125 37.164062 15.082031 C 37.164062 13.851562 36.164062 12.851562 34.933594 12.851562 Z M 25.011719 15.457031 C 19.738281 15.457031 15.464844 19.726562 15.464844 24.996094 C 15.464844 30.265625 19.738281 34.535156 25.011719 34.535156 C 30.28125 34.535156 34.554688 30.265625 34.554688 24.996094 C 34.554688 19.726562 30.28125 15.457031 25.007812 15.457031 Z M 25.011719 18.804688 C 28.433594 18.804688 31.207031 21.578125 31.207031 24.996094 C 31.207031 28.417969 28.433594 31.1875 25.011719 31.1875 C 21.585938 31.1875 18.8125 28.417969 18.8125 24.996094 C 18.8125 21.578125 21.585938 18.804688 25.011719 18.804688 Z M 25.011719 18.804688 "/>
</g>
</svg>
